<?xml version="1.0" encoding="utf-8"?>
<!-- Generator: Adobe Illustrator 20.0.0, SVG Export Plug-In . SVG Version: 6.00 Build 0)  -->
<svg version="1.1" baseProfile="tiny" id="Layer_1" xmlns="http://www.w3.org/2000/svg" xmlns:xlink="http://www.w3.org/1999/xlink"
	 x="0px" y="0px" width="69.8px" height="69.6px" viewBox="0 0 69.8 69.6" xml:space="preserve">
<g>
	<path d="M50.3,20h-5.5v34h10V24.4C54.8,21.4,53.2,20,50.3,20z"/>
	<path d="M34.9,0C14.9,0,0,14.9,0,34.8s14.9,34.8,34.9,34.8c19.9,0,34.9-14.9,34.9-34.8S54.9,0,34.9,0z M34.9,64
		C18.2,64,6,51.7,6,34.8C6,17.9,18.2,5.6,34.9,5.6c16.7,0,28.9,12.4,28.9,29.2C63.9,51.7,51.7,64,34.9,64z"/>
	<path d="M35.9,12h-9.1v4h0.6c2.1,0,2.4,0.6,2.4,3v35h10V15.9C39.8,12.9,38.9,12,35.9,12z"/>
	<path d="M15.8,24.4V54h10V20h-6.2C16.6,20,15.8,21.4,15.8,24.4z"/>
</g>
</svg>
