<?xml version="1.0" standalone="no"?>
<!DOCTYPE svg PUBLIC "-//W3C//DTD SVG 20010904//EN"
 "http://www.w3.org/TR/2001/REC-SVG-20010904/DTD/svg10.dtd">
<svg version="1.0" xmlns="http://www.w3.org/2000/svg"
 width="700.000000pt" height="700.000000pt" viewBox="0 0 700.000000 700.000000"
 preserveAspectRatio="xMidYMid meet">
<metadata>
Created by potrace 1.11, written by Peter Selinger 2001-2013
</metadata>
<g transform="translate(0.000000,700.000000) scale(0.100000,-0.100000)"
fill="#000000" stroke="none">
<path d="M3278 6995 c-2 -1 -43 -5 -93 -9 -49 -3 -101 -8 -115 -10 -14 -2 -50
-7 -80 -11 -93 -11 -121 -15 -245 -41 -156 -33 -141 -29 -251 -59 -104 -28
-332 -106 -404 -137 -71 -31 -380 -185 -430 -215 -291 -172 -607 -435 -815
-678 -33 -38 -63 -72 -66 -75 -14 -11 -160 -214 -211 -291 -142 -216 -276
-489 -362 -738 -39 -113 -101 -326 -111 -382 -3 -19 -11 -54 -16 -79 -14 -63
-38 -198 -44 -256 -3 -27 -8 -60 -10 -74 -19 -109 -27 -589 -12 -755 28 -323
93 -630 195 -920 60 -171 77 -211 169 -395 203 -409 488 -775 821 -1052 48
-40 89 -75 92 -78 6 -7 78 -59 155 -114 258 -183 601 -351 930 -456 176 -56
453 -117 610 -135 28 -3 61 -8 75 -10 141 -26 722 -26 870 -1 14 2 50 7 80 11
181 20 489 91 685 159 905 310 1624 969 2005 1836 42 96 52 122 109 285 29 81
93 312 105 375 2 14 11 61 20 105 18 97 24 136 31 195 3 25 7 54 10 65 31 148
25 741 -10 970 -3 17 -10 62 -16 100 -6 39 -14 86 -19 105 -5 19 -12 51 -15
70 -3 19 -8 43 -11 52 -3 9 -6 25 -8 35 -10 47 -41 158 -73 258 -237 737 -711
1365 -1343 1779 -414 272 -918 464 -1395 531 -27 4 -59 9 -70 11 -10 2 -51 6
-90 10 -38 3 -79 8 -90 11 -22 5 -552 13 -557 8z m487 -569 c99 -9 237 -26
244 -31 3 -1 29 -6 56 -9 28 -4 104 -20 170 -37 66 -16 130 -32 143 -34 13 -3
87 -29 165 -56 830 -297 1459 -964 1717 -1819 65 -216 113 -472 128 -680 13
-187 5 -588 -13 -674 -2 -12 -6 -39 -9 -61 -8 -70 -27 -179 -36 -215 -5 -19
-12 -49 -15 -67 -12 -71 -85 -306 -129 -418 -102 -255 -245 -506 -395 -695
-20 -24 -43 -53 -51 -64 -8 -10 -40 -46 -70 -79 -313 -346 -718 -611 -1160
-760 -96 -32 -235 -73 -285 -83 -11 -2 -56 -11 -100 -20 -84 -17 -90 -18 -170
-28 -102 -14 -122 -16 -205 -23 -159 -13 -541 -5 -625 12 -11 2 -42 7 -69 10
-269 32 -667 150 -864 255 -20 11 -40 20 -43 20 -15 0 -181 97 -299 175 -602
396 -1033 1048 -1179 1780 -52 264 -65 399 -65 675 0 248 20 469 58 645 3 11
11 52 20 90 46 213 127 439 237 662 440 891 1320 1464 2349 1529 52 4 96 7 98
9 5 4 329 -3 397 -9z"/>
<path d="M2689 5705 c0 -127 0 -277 0 -296 1 -13 17 -17 89 -22 48 -3 101 -11
118 -18 50 -20 81 -81 89 -178 2 -20 4 -843 4 -1828 l1 -1793 500 0 500 0 -2
1993 c-3 1854 -4 1995 -20 2042 -36 103 -123 167 -246 181 -35 4 -281 7 -548
8 l-484 1 -1 -90z"/>
<path d="M1835 4975 c-148 -34 -218 -117 -241 -285 -4 -30 -8 -745 -9 -1587
l0 -1533 501 0 501 0 1 1710 0 1711 -352 -2 c-228 -1 -369 -6 -401 -14z"/>
<path d="M4497 4983 c-3 -4 -5 -774 -5 -1710 l0 -1703 502 0 501 0 -1 1533
c-1 1114 -4 1545 -12 1579 -42 169 -151 270 -323 296 -77 12 -655 16 -662 5z"/>
</g>
</svg>
